# xmcd
#
# Track frame offsets:
#	150
#	22077
#	43639
#	63068
#	86212
#	106493
#	126723
#	147567
#	164754
#	186157
#	205204
#	223772
#	241238
#	267825
#	285646
#	298812
#	316986
#	340233
#
# Disc length: 4747 seconds
#
# Revision: 1
# Processed by: cddbd v1.4PL0 Copyright (c) Steve Scherf et al.
# Submitted via: audiograbber 1.82.01
#
DISCID=2a128912
DTITLE=Mariah Carey - HIT EDITION (New,Best and Remixes)
DYEAR=2003
DGENRE=Pop
TTITLE0=I Know What You Want (feat. Busta Rhymes and The Flipmode Squad)
TTITLE1=Through The Rain
TTITLE2=You Got Me (feat Jay-Z and Freeway)
TTITLE3=Boy (I Need You) (feat. Cam'ron)
TTITLE4=Bringin' On The Heartbreak
TTITLE5=When you believe (Whitney Houston and Mariah Carey)
TTITLE6=One Sweet Day (Mariah Carey and Boyz II Men)
TTITLE7=My All
TTITLE8=Heartbreak
TTITLE9=After Tonight
TTITLE10=My Saving Grace
TTITLE11=Dreamlover
TTITLE12=Loverboy
TTITLE13=X-Girlfriend
TTITLE14=Sunflowers for Alfred Ray
TTITLE15=The One
TTITLE16=All My Love
TTITLE17=Through the Rain (RMX)
EXTD=
EXTT0=
EXTT1=
EXTT2=
EXTT3=
EXTT4=
EXTT5=
EXTT6=
EXTT7=
EXTT8=
EXTT9=
EXTT10=
EXTT11=
EXTT12=
EXTT13=
EXTT14=
EXTT15=
EXTT16=
EXTT17=
PLAYORDER=
